#!OML:ASF X:\für Bonn\!DataBase\2005_08_11_Bastian_Final\c3d\Bastian.ASF
:FULLY-SPECIFIED
:DEGREES
107
root 21.4363 15.9293 -3.44295 1066.42 -71.5096 29.9389
lowerback 71.3038 -6.94004 14.903
upperback 16.415 -0.695426 1.04248
thorax -1.59915 -0.618943 -4.30387
lowerneck -12.7112 -4.82342 -1.65491
upperneck -17.5471 -7.11826 0.282068
head -3.54027 -3.90682 0.343411
rclavicle 1.59028e-014 -7.95139e-016
rhumerus 60.2697 -19.1804 -62.8557
rradius 9.33815
rwrist 9.73361
rhand -29.9882 -2.05205
rfingers 7.12502
rthumb -3.30606 -32.0062
lclavicle 1.59028e-014 -7.95139e-016
lhumerus -10.8801 -29.7039 -275.147
lradius 44.2825
lwrist -332.133
lhand -12.2215 -12.4196
lfingers 7.12502
lthumb 13.8436 17.0997
rfemur -64.5657 -15.3291 18.6932
rtibia 62.9825
rfoot -7.05787 2.8985
rtoes 7.60747
lfemur -56.8328 -3.36521 -29.3669
ltibia 42.2978
lfoot 3.30686 -5.21945
ltoes -9.50271
108
root 21.3931 15.9118 -3.43564 1066.46 -71.3026 30.4732
lowerback 71.6751 -7.08854 14.8524
upperback 16.159 -0.758614 0.887723
thorax -1.87601 -0.634057 -4.41413
lowerneck -12.3617 -4.77728 -1.57892
upperneck -17.8336 -7.07812 0.250654
head -3.7078 -3.88767 0.339762
rclavicle -6.04305e-014 -3.49861e-014
rhumerus 60.6987 -19.7795 -64.0366
rradius 9.32067
rwrist 10.8891
rhand -30.4907 -2.00005
rfingers 7.12502
rthumb -3.79133 -31.9461
lclavicle -6.04305e-014 -3.49861e-014
lhumerus -11.1782 -29.6877 -275.15
lradius 44.4622
lwrist -331.908
lhand -12.4335 -12.9288
lfingers 7.12502
lthumb 13.6392 16.6044
rfemur -65.2821 -15.4761 18.5669
rtibia 63.4388
rfoot -7.35119 2.8205
rtoes 7.54047
lfemur -57.4608 -3.41223 -29.7509
ltibia 42.5979
lfoot 3.41752 -5.40427
ltoes -10.3303
109
root 21.3499 15.8963 -3.42884 1066.69 -71.1049 30.7994
lowerback 72.0445 -7.24713 14.8163
upperback 15.9002 -0.825457 0.726839
thorax -2.15457 -0.650533 -4.53589
lowerneck -12.0354 -4.71894 -1.48588
upperneck -18.0763 -7.0171 0.233668
head -3.85665 -3.85866 0.335959
rclavicle 1.59028e-014 1.98785e-014
rhumerus 61.1357 -20.3448 -65.2787
rradius 9.32474
rwrist 11.9725
rhand -30.983 -1.88882
rfingers 7.12502
rthumb -4.26675 -31.8258
lclavicle 1.59028e-014 1.98785e-014
lhumerus -11.512 -29.7057 -275.211
lradius 44.7613
lwrist -331.653
lhand -12.6116 -13.3229
lfingers 7.12502
lthumb 13.4676 16.2216
rfemur -65.9509 -15.5916 18.4916
rtibia 63.8746
rfoot -7.61894 2.73156
rtoes 7.33942
lfemur -58.0665 -3.52571 -29.9933
ltibia 42.8973
lfoot 3.46489 -5.53089
ltoes -10.963
110
root 21.3079 15.8802 -3.42184 1066.85 -70.8787 31.1963
lowerback 72.4292 -7.42469 14.7764
upperback 15.5984 -0.903567 0.532537
thorax -2.48347 -0.669702 -4.68914
lowerneck -11.5853 -4.65304 -1.28237
upperneck -18.3406 -6.95856 0.182545
head -4.04137 -3.83447 0.306804
rclavicle -6.99722e-014 2.38542e-015
rhumerus 61.4585 -20.8865 -66.5527
rradius 9.34258
rwrist 13.1018
rhand -31.4922 -1.77222
rfingers 7.12502
rthumb -4.75844 -31.6988
lclavicle -6.99722e-014 2.38542e-015
lhumerus -11.9226 -29.7102 -275.263
lradius 45.0807
lwrist -331.406
lhand -12.7694 -13.6766
lfingers 7.12502
lthumb 13.3155 15.878
rfemur -66.607 -15.7376 18.3826
rtibia 64.2932
rfoot -7.90628 2.62087
rtoes 7.25773
lfemur -58.6635 -3.61143 -30.3176
ltibia 43.2013
lfoot 3.51231 -5.72312
ltoes -11.7688
111
root 21.2648 15.864 -3.41474 1067.08 -70.6842 31.5304
lowerback 72.7887 -7.56575 14.7284
upperback 15.3009 -0.955332 0.354595
thorax -2.80864 -0.680465 -4.83337
lowerneck -11.0858 -4.59558 -1.0951
upperneck -18.6275 -6.90729 0.146073
head -4.24393 -3.81308 0.286785
rclavicle 0 8.74653e-015
rhumerus 61.7536 -21.4479 -67.8018
rradius 9.39753
rwrist 14.125
rhand -31.9726 -1.59514
rfingers 7.12502
rthumb -5.22232 -31.5108
lclavicle 0 8.74653e-015
lhumerus -12.3361 -29.7334 -275.312
lradius 45.4319
lwrist -331.145
lhand -12.8404 -13.9589
lfingers 7.12502
lthumb 13.247 15.6002
rfemur -67.2658 -15.8505 18.2946
rtibia 64.6974
rfoot -8.16525 2.51123
rtoes 7.31317
lfemur -59.2585 -3.69936 -30.5885
ltibia 43.5137
lfoot 3.54013 -5.86705
ltoes -12.3156
112
root 21.2225 15.8506 -3.40709 1067.34 -70.4751 31.8245
lowerback 73.1377 -7.73997 14.711
upperback 14.9993 -1.02622 0.136849
thorax -3.13868 -0.692604 -5.02825
lowerneck -10.5945 -4.53762 -0.8249
upperneck -18.8574 -6.85445 0.110894
head -4.42853 -3.79519 0.251093
rclavicle -3.18055e-015 -1.43125e-014
rhumerus 62.0325 -22.0112 -69.1201
rradius 9.43511
rwrist 15.2244
rhand -32.5306 -1.46919
rfingers 7.12502
rthumb -5.761 -31.3709
lclavicle -3.18055e-015 -1.43125e-014
lhumerus -12.7482 -29.7717 -275.417
lradius 45.7418
lwrist -330.943
lhand -12.9299 -14.2671
lfingers 7.12502
lthumb 13.1608 15.2975
rfemur -67.8989 -15.9698 18.2107
rtibia 65.0786
rfoot -8.4216 2.40752
rtoes 7.01983
lfemur -59.8403 -3.83619 -30.8118
ltibia 43.8248
lfoot 3.53668 -5.96238
ltoes -12.6058
113
root 21.1794 15.836 -3.39994 1067.71 -70.2825 31.9721
lowerback 73.4826 -7.87938 14.6895
upperback 14.6919 -1.06134 -0.0353844
thorax -3.47215 -0.697772 -5.18437
lowerneck -9.93247 -4.4935 -0.563956
upperneck -19.1804 -6.82388 0.0569162
head -4.68221 -3.78646 0.21802
rclavicle -3.18055e-014 -1.66979e-014
rhumerus 62.2606 -22.5614 -70.3898
rradius 9.48751
rwrist 16.2896
rhand -33.1134 -1.27057
rfingers 7.12502
rthumb -6.32372 -31.1562
lclavicle -3.18055e-014 -1.66979e-014
lhumerus -13.1854 -29.8419 -275.471
lradius 46.0368
lwrist -330.708
lhand -13.0395 -14.5523
lfingers 7.12502
lthumb 13.0551 15.0191
rfemur -68.4941 -16.0886 18.1901
rtibia 65.4374
rfoot -8.67574 2.27934
rtoes 7.03319
lfemur -60.4097 -3.94368 -30.9999
ltibia 44.1388
lfoot 3.53952 -6.08192
ltoes -12.7567
114
root 21.1363 15.8229 -3.39207 1068.16 -70.1072 32.091
lowerback 73.761 -7.96915 14.6499
upperback 14.4077 -1.06959 -0.169784
thorax -3.78438 -0.695974 -5.30522
lowerneck -9.32355 -4.45275 -0.360213
upperneck -19.4648 -6.78656 0.02286
head -4.91183 -3.77172 0.197989
rclavicle -2.8625e-014 3.18055e-015
rhumerus 62.5014 -23.1326 -71.617
rradius 9.55663
rwrist 17.3712
rhand -33.6964 -1.10685
rfingers 7.12502
rthumb -6.88648 -30.9748
lclavicle -2.8625e-014 3.18055e-015
lhumerus -13.6184 -29.9142 -275.48
lradius 46.3538
lwrist -330.465
lhand -13.1963 -14.7759
lfingers 7.12502
lthumb 12.9039 14.8052
rfemur -69.124 -16.1859 18.1884
rtibia 65.7767
rfoot -8.89734 2.14096
rtoes 6.88944
lfemur -61.0132 -4.08169 -31.145
ltibia 44.444
lfoot 3.51426 -6.14929
ltoes -13.1312
115
root 21.0946 15.812 -3.38517 1068.81 -69.9246 31.9536
lowerback 74.059 -8.0856 14.6546
upperback 14.1209 -1.07246 -0.28862
thorax -4.09085 -0.69391 -5.42566
lowerneck -8.35606 -4.40572 -0.0874281
upperneck -20.4255 -6.75502 -0.0592379
head -4.82646 -3.76027 0.143287
rclavicle 9.22361e-014 2.54444e-014
rhumerus 62.7723 -23.6816 -72.8578
rradius 9.59784
rwrist 18.4573
rhand -34.1782 -0.909891
rfingers 7.12502
rthumb -7.35155 -30.7622
lclavicle 9.22361e-014 2.54444e-014
lhumerus -14.0179 -29.934 -275.504
lradius 46.6204
lwrist -330.241
lhand -13.3391 -15.0848
lfingers 7.12502
lthumb 12.7663 14.5049
rfemur -69.6874 -16.2816 18.2619
rtibia 66.0887
rfoot -9.13974 1.98424
rtoes 6.77081
lfemur -61.5936 -4.18652 -31.2362
ltibia 44.7474
lfoot 3.51477 -6.30355
ltoes -13.4505
116
root 21.052 15.8005 -3.37749 1069.38 -69.7541 31.9069
lowerback 74.3419 -8.15737 14.6302
upperback 13.8368 -1.0501 -0.383885
thorax -4.39638 -0.685277 -5.5201
lowerneck -7.76433 -4.38996 0.0873394
upperneck -20.6793 -6.74561 -0.110429
head -5.00614 -3.75633 0.120889
rclavicle -5.725e-014 -4.13472e-014
rhumerus 63.042 -24.2473 -74.0619
rradius 9.60789
rwrist 19.5584
rhand -34.6226 -0.667888
rfingers 7.12502
rthumb -7.78057 -30.5047
lclavicle -5.725e-014 -4.13472e-014
lhumerus -14.3956 -29.9651 -275.47
lradius 46.8591
lwrist -330.065
lhand -13.5389 -15.3539
lfingers 7.12502
lthumb 12.5737 14.2477
rfemur -70.2606 -16.3733 18.3152
rtibia 66.3876
rfoot -9.36479 1.83566
rtoes 6.66755
lfemur -62.1636 -4.32638 -31.3147
ltibia 45.0417
lfoot 3.46485 -6.38861
ltoes -13.6044
117
root 21.009 15.7893 -3.37014 1070.01 -69.6139 31.8075
lowerback 74.6061 -8.18297 14.596
upperback 13.5804 -0.997117 -0.462858
thorax -4.66995 -0.664607 -5.60701
lowerneck -7.25922 -4.36537 0.348111
upperneck -20.909 -6.73824 -0.240725
head -5.17126 -3.75697 0.056859
rclavicle -6.99722e-014 -5.64548e-014
rhumerus 63.3565 -24.8639 -75.2648
rradius 9.61525
rwrist 20.6091
rhand -34.9629 -0.398445
rfingers 7.12502
rthumb -8.109 -30.2229
lclavicle -6.99722e-014 -5.64548e-014
lhumerus -14.6923 -30.0165 -275.456
lradius 47.0523
lwrist -329.883
lhand -13.6836 -15.6689
lfingers 7.12502
lthumb 12.4342 13.9412
rfemur -70.8273 -16.4321 18.3981
rtibia 66.6675
rfoot -9.56755 1.67859
rtoes 6.52828
lfemur -62.7423 -4.44086 -31.3646
ltibia 45.3277
lfoot 3.43241 -6.49784
ltoes -13.8996
118
root 20.967 15.7797 -3.36285 1070.71 -69.4452 31.5923
lowerback 74.9042 -8.25548 14.5899
upperback 13.2853 -0.961681 -0.557348
thorax -4.98316 -0.652491 -5.71308
lowerneck -6.65543 -4.3366 0.602566
upperneck -21.1659 -6.71307 -0.328817
head -5.35972 -3.74837 0.00956638
rclavicle 8.90555e-014 -2.78299e-014
rhumerus 63.626 -25.4416 -76.4902
rradius 9.61287
rwrist 21.7309
rhand -35.217 -0.137983
rfingers 7.12502
rthumb -8.35419 -29.9528
lclavicle 8.90555e-014 -2.78299e-014
lhumerus -15.0612 -30.0301 -275.431
lradius 47.2748
lwrist -329.73
lhand -13.8427 -15.914
lfingers 7.12502
lthumb 12.2808 13.7054
rfemur -71.3225 -16.4978 18.4888
rtibia 66.926
rfoot -9.81105 1.50035
rtoes 6.34586
lfemur -63.281 -4.56975 -31.3871
ltibia 45.6054
lfoot 3.39281 -6.60382
ltoes -14.0011
119
root 20.9246 15.7704 -3.3553 1071.4 -69.2829 31.3841
lowerback 75.1995 -8.30325 14.5628
upperback 13.0005 -0.916907 -0.631253
thorax -5.28566 -0.639671 -5.7925
lowerneck -6.1701 -4.3279 0.807327
upperneck -21.3204 -6.71148 -0.418179
head -5.49635 -3.74866 -0.0350075
rclavicle -3.49861e-014 3.02153e-014
rhumerus 63.9742 -25.9962 -77.7149
rradius 9.54815
rwrist 22.8262
rhand -35.4854 0.0804868
rfingers 7.12502
rthumb -8.61326 -29.7238
lclavicle -3.49861e-014 3.02153e-014
lhumerus -15.3756 -30.0602 -275.405
lradius 47.4649
lwrist -329.575
lhand -14.0058 -16.1635
lfingers 7.12502
lthumb 12.1235 13.4653
rfemur -71.8215 -16.5735 18.5865
rtibia 67.1773
rfoot -10.0226 1.35076
rtoes 6.40535
lfemur -63.804 -4.72662 -31.3745
ltibia 45.8751
lfoot 3.31541 -6.69172
ltoes -14.1694
120
root 20.882 15.763 -3.34776 1072.01 -69.1382 31.253
lowerback 75.4816 -8.3253 14.5169
upperback 12.7314 -0.867832 -0.716375
thorax -5.57374 -0.623184 -5.88208
lowerneck -5.6968 -4.31302 1.05949
upperneck -21.4925 -6.70545 -0.535646
head -5.6399 -3.74904 -0.0964188
rclavicle -6.04305e-014 1.19271e-014
rhumerus 64.2988 -26.5966 -78.9499
rradius 9.52728
rwrist 23.9069
rhand -35.6632 0.337885
rfingers 7.12502
rthumb -8.78483 -29.4593
lclavicle -6.04305e-014 1.19271e-014
lhumerus -15.6706 -30.078 -275.373
lradius 47.6457
lwrist -329.469
lhand -14.1691 -16.3721
lfingers 7.12502
lthumb 11.9661 13.2659
rfemur -72.3009 -16.6405 18.6745
rtibia 67.4081
rfoot -10.2156 1.20615
rtoes 6.16568
lfemur -64.3121 -4.83622 -31.4115
ltibia 46.1356
lfoot 3.23045 -6.82712
ltoes -14.4435
